<?xml version="1.0" encoding="UTF-8"?>
<svg width="35px" height="35px" viewBox="0 0 35 35" version="1.1" xmlns="http://www.w3.org/2000/svg" xmlns:xlink="http://www.w3.org/1999/xlink">
    <!-- Generator: Sketch 59.1 (86144) - https://sketch.com -->
    <title>Group 7</title>
    <desc>Created with Sketch.</desc>
    <g id="Bot_Review" stroke="none" stroke-width="1" fill="none" fill-rule="evenodd">
        <g id="Chatbot-help" transform="translate(-224.000000, -272.000000)">
            <g id="Group-5" transform="translate(15.000000, 138.000000)">
                <g id="Group-4-Copy" transform="translate(15.000000, 116.000000)">
                    <g id="Group" transform="translate(194.000000, 18.000000)">
                        <g id="Group-7">
                            <circle id="Oval" stroke="#FFFFFF" cx="17.5" cy="17.5" r="17"></circle>
                            <path d="M12.3435971,23.6979419 L12.3435971,18.4379419 L15.2435971,25.3779419 L14.0235971,25.3779419 C13.5702615,25.3779419 13.1769321,25.2112769 12.8435971,24.8779419 C12.5102621,24.5446069 12.3435971,24.1512775 12.3435971,23.6979419 Z M25.7705637,20.8783884 C25.9572313,21.3050572 25.9605646,21.7317196 25.7805637,22.1583884 C25.6005628,22.5850572 25.2972325,22.8850542 24.8705637,23.0583884 L18.7305637,25.5983884 C18.5572295,25.6783888 18.3372317,25.7183884 18.0705637,25.7183884 C17.7372287,25.7183884 17.4338984,25.6283893 17.1605637,25.4483884 C16.887229,25.2683875 16.6838977,25.0250566 16.5505637,24.7183884 L12.4105637,14.6983884 C12.3305633,14.4717206 12.2905637,14.2517228 12.2905637,14.0383884 C12.2905637,13.7317202 12.3838961,13.4450564 12.5705637,13.1783884 C12.7572313,12.9117204 13.0038955,12.7050558 13.3105637,12.5583884 L19.4905637,10.0183884 C19.7172315,9.93838801 19.9372293,9.89838841 20.1505637,9.89838841 C20.4572319,9.89838841 20.7438957,9.99172081 21.0105637,10.1783884 C21.2772317,10.365056 21.4838963,10.6117202 21.6305637,10.9183884 L25.7705637,20.8783884 Z M10.0506738,23.1843553 C9.62400496,23.0110211 9.32400796,22.7176907 9.15067376,22.3043553 C8.97733956,21.8910199 8.97733956,21.4710241 9.15067376,21.0443553 L11.1706738,16.1643553 L11.1706738,23.6643553 L10.0506738,23.1843553 Z" id="" fill="#FFFFFF" fill-rule="nonzero" transform="translate(17.466891, 17.808388) rotate(203.000000) translate(-17.466891, -17.808388) "></path>
                        </g>
                    </g>
                </g>
            </g>
        </g>
    </g>
</svg>